ISO-10303-21;
HEADER;
/* Generated by software containing ST-Developer
 * from STEP Tools, Inc. (www.steptools.com) 
 */

FILE_DESCRIPTION(
/* description */ (''),
/* implementation_level */ '2;1');

FILE_NAME(
/* name */ 'Dreamdeck_back.step',
/* time_stamp */ '2026-01-04T14:05:45+01:00',
/* author */ (''),
/* organization */ (''),
/* preprocessor_version */ 'ST-DEVELOPER v20.1',
/* originating_system */ 'Autodesk Translation Framework v14.21.0.0',
/* authorisation */ '');

FILE_SCHEMA (('AUTOMOTIVE_DESIGN { 1 0 10303 214 3 1 1 }'));
ENDSEC;

DATA;
#10=MECHANICAL_DESIGN_GEOMETRIC_PRESENTATION_REPRESENTATION('',(#13),#603);
#11=SHAPE_REPRESENTATION_RELATIONSHIP('SRR','None',#610,#12);
#12=ADVANCED_BREP_SHAPE_REPRESENTATION('',(#14),#602);
#13=STYLED_ITEM('',(#619),#14);
#14=MANIFOLD_SOLID_BREP('K\X\F6rper4',#351);
#15=FACE_BOUND('',#64,.T.);
#16=FACE_BOUND('',#65,.T.);
#17=FACE_BOUND('',#67,.T.);
#18=FACE_BOUND('',#68,.T.);
#19=PLANE('',#374);
#20=PLANE('',#378);
#21=PLANE('',#379);
#22=PLANE('',#383);
#23=PLANE('',#387);
#24=PLANE('',#391);
#25=PLANE('',#395);
#26=PLANE('',#396);
#27=PLANE('',#397);
#28=PLANE('',#398);
#29=FACE_OUTER_BOUND('',#47,.T.);
#30=FACE_OUTER_BOUND('',#48,.T.);
#31=FACE_OUTER_BOUND('',#49,.T.);
#32=FACE_OUTER_BOUND('',#50,.T.);
#33=FACE_OUTER_BOUND('',#51,.T.);
#34=FACE_OUTER_BOUND('',#52,.T.);
#35=FACE_OUTER_BOUND('',#53,.T.);
#36=FACE_OUTER_BOUND('',#54,.T.);
#37=FACE_OUTER_BOUND('',#55,.T.);
#38=FACE_OUTER_BOUND('',#56,.T.);
#39=FACE_OUTER_BOUND('',#57,.T.);
#40=FACE_OUTER_BOUND('',#58,.T.);
#41=FACE_OUTER_BOUND('',#59,.T.);
#42=FACE_OUTER_BOUND('',#60,.T.);
#43=FACE_OUTER_BOUND('',#61,.T.);
#44=FACE_OUTER_BOUND('',#62,.T.);
#45=FACE_OUTER_BOUND('',#63,.T.);
#46=FACE_OUTER_BOUND('',#66,.T.);
#47=EDGE_LOOP('',(#229,#230,#231,#232));
#48=EDGE_LOOP('',(#233,#234,#235,#236));
#49=EDGE_LOOP('',(#237,#238,#239,#240));
#50=EDGE_LOOP('',(#241,#242,#243,#244));
#51=EDGE_LOOP('',(#245,#246,#247,#248));
#52=EDGE_LOOP('',(#249,#250,#251,#252));
#53=EDGE_LOOP('',(#253,#254,#255,#256));
#54=EDGE_LOOP('',(#257,#258,#259,#260));
#55=EDGE_LOOP('',(#261,#262,#263,#264));
#56=EDGE_LOOP('',(#265,#266,#267,#268));
#57=EDGE_LOOP('',(#269,#270,#271,#272));
#58=EDGE_LOOP('',(#273,#274,#275,#276));
#59=EDGE_LOOP('',(#277,#278,#279,#280));
#60=EDGE_LOOP('',(#281,#282,#283,#284));
#61=EDGE_LOOP('',(#285,#286,#287,#288));
#62=EDGE_LOOP('',(#289,#290,#291,#292));
#63=EDGE_LOOP('',(#293,#294,#295,#296,#297,#298,#299,#300,#301,#302,#303,
#304,#305,#306));
#64=EDGE_LOOP('',(#307));
#65=EDGE_LOOP('',(#308));
#66=EDGE_LOOP('',(#309,#310,#311,#312,#313,#314,#315,#316,#317,#318,#319,
#320,#321,#322));
#67=EDGE_LOOP('',(#323));
#68=EDGE_LOOP('',(#324));
#69=LINE('',#506,#101);
#70=LINE('',#512,#102);
#71=LINE('',#519,#103);
#72=LINE('',#522,#104);
#73=LINE('',#525,#105);
#74=LINE('',#527,#106);
#75=LINE('',#528,#107);
#76=LINE('',#534,#108);
#77=LINE('',#537,#109);
#78=LINE('',#539,#110);
#79=LINE('',#540,#111);
#80=LINE('',#543,#112);
#81=LINE('',#545,#113);
#82=LINE('',#546,#114);
#83=LINE('',#552,#115);
#84=LINE('',#555,#116);
#85=LINE('',#557,#117);
#86=LINE('',#558,#118);
#87=LINE('',#564,#119);
#88=LINE('',#567,#120);
#89=LINE('',#569,#121);
#90=LINE('',#570,#122);
#91=LINE('',#576,#123);
#92=LINE('',#579,#124);
#93=LINE('',#581,#125);
#94=LINE('',#582,#126);
#95=LINE('',#588,#127);
#96=LINE('',#591,#128);
#97=LINE('',#593,#129);
#98=LINE('',#594,#130);
#99=LINE('',#596,#131);
#100=LINE('',#597,#132);
#101=VECTOR('',#405,1.5);
#102=VECTOR('',#412,1.5);
#103=VECTOR('',#419,10.);
#104=VECTOR('',#422,10.);
#105=VECTOR('',#425,10.);
#106=VECTOR('',#426,10.);
#107=VECTOR('',#427,10.);
#108=VECTOR('',#434,10.);
#109=VECTOR('',#437,10.);
#110=VECTOR('',#438,10.);
#111=VECTOR('',#439,10.);
#112=VECTOR('',#442,10.);
#113=VECTOR('',#443,10.);
#114=VECTOR('',#444,10.);
#115=VECTOR('',#451,10.);
#116=VECTOR('',#454,10.);
#117=VECTOR('',#455,10.);
#118=VECTOR('',#456,10.);
#119=VECTOR('',#463,10.);
#120=VECTOR('',#466,10.);
#121=VECTOR('',#467,10.);
#122=VECTOR('',#468,10.);
#123=VECTOR('',#475,10.);
#124=VECTOR('',#478,10.);
#125=VECTOR('',#479,10.);
#126=VECTOR('',#480,10.);
#127=VECTOR('',#487,10.);
#128=VECTOR('',#490,10.);
#129=VECTOR('',#491,10.);
#130=VECTOR('',#492,10.);
#131=VECTOR('',#495,10.);
#132=VECTOR('',#496,10.);
#133=CIRCLE('',#366,1.5);
#134=CIRCLE('',#367,1.5);
#135=CIRCLE('',#369,1.5);
#136=CIRCLE('',#370,1.5);
#137=CIRCLE('',#372,7.00000000000001);
#138=CIRCLE('',#373,7.00000000000001);
#139=CIRCLE('',#376,6.99999999999999);
#140=CIRCLE('',#377,6.99999999999999);
#141=CIRCLE('',#381,5.99999999999999);
#142=CIRCLE('',#382,5.99999999999999);
#143=CIRCLE('',#385,6.00000000000003);
#144=CIRCLE('',#386,6.00000000000003);
#145=CIRCLE('',#389,6.00000000000001);
#146=CIRCLE('',#390,6.00000000000001);
#147=CIRCLE('',#393,6.);
#148=CIRCLE('',#394,6.);
#149=VERTEX_POINT('',#503);
#150=VERTEX_POINT('',#505);
#151=VERTEX_POINT('',#509);
#152=VERTEX_POINT('',#511);
#153=VERTEX_POINT('',#515);
#154=VERTEX_POINT('',#516);
#155=VERTEX_POINT('',#518);
#156=VERTEX_POINT('',#520);
#157=VERTEX_POINT('',#524);
#158=VERTEX_POINT('',#526);
#159=VERTEX_POINT('',#530);
#160=VERTEX_POINT('',#532);
#161=VERTEX_POINT('',#536);
#162=VERTEX_POINT('',#538);
#163=VERTEX_POINT('',#542);
#164=VERTEX_POINT('',#544);
#165=VERTEX_POINT('',#548);
#166=VERTEX_POINT('',#550);
#167=VERTEX_POINT('',#554);
#168=VERTEX_POINT('',#556);
#169=VERTEX_POINT('',#560);
#170=VERTEX_POINT('',#562);
#171=VERTEX_POINT('',#566);
#172=VERTEX_POINT('',#568);
#173=VERTEX_POINT('',#572);
#174=VERTEX_POINT('',#574);
#175=VERTEX_POINT('',#578);
#176=VERTEX_POINT('',#580);
#177=VERTEX_POINT('',#584);
#178=VERTEX_POINT('',#586);
#179=VERTEX_POINT('',#590);
#180=VERTEX_POINT('',#592);
#181=EDGE_CURVE('',#149,#149,#133,.T.);
#182=EDGE_CURVE('',#149,#150,#69,.T.);
#183=EDGE_CURVE('',#150,#150,#134,.T.);
#184=EDGE_CURVE('',#151,#151,#135,.T.);
#185=EDGE_CURVE('',#151,#152,#70,.T.);
#186=EDGE_CURVE('',#152,#152,#136,.T.);
#187=EDGE_CURVE('',#153,#154,#137,.T.);
#188=EDGE_CURVE('',#153,#155,#71,.T.);
#189=EDGE_CURVE('',#156,#155,#138,.T.);
#190=EDGE_CURVE('',#154,#156,#72,.T.);
#191=EDGE_CURVE('',#154,#157,#73,.T.);
#192=EDGE_CURVE('',#158,#156,#74,.T.);
#193=EDGE_CURVE('',#157,#158,#75,.T.);
#194=EDGE_CURVE('',#157,#159,#139,.T.);
#195=EDGE_CURVE('',#160,#158,#140,.T.);
#196=EDGE_CURVE('',#159,#160,#76,.T.);
#197=EDGE_CURVE('',#161,#159,#77,.T.);
#198=EDGE_CURVE('',#162,#160,#78,.T.);
#199=EDGE_CURVE('',#161,#162,#79,.T.);
#200=EDGE_CURVE('',#161,#163,#80,.T.);
#201=EDGE_CURVE('',#164,#162,#81,.T.);
#202=EDGE_CURVE('',#163,#164,#82,.T.);
#203=EDGE_CURVE('',#165,#163,#141,.T.);
#204=EDGE_CURVE('',#166,#164,#142,.T.);
#205=EDGE_CURVE('',#165,#166,#83,.T.);
#206=EDGE_CURVE('',#165,#167,#84,.T.);
#207=EDGE_CURVE('',#168,#166,#85,.T.);
#208=EDGE_CURVE('',#167,#168,#86,.T.);
#209=EDGE_CURVE('',#169,#167,#143,.T.);
#210=EDGE_CURVE('',#170,#168,#144,.T.);
#211=EDGE_CURVE('',#169,#170,#87,.T.);
#212=EDGE_CURVE('',#169,#171,#88,.T.);
#213=EDGE_CURVE('',#172,#170,#89,.T.);
#214=EDGE_CURVE('',#171,#172,#90,.T.);
#215=EDGE_CURVE('',#173,#171,#145,.T.);
#216=EDGE_CURVE('',#174,#172,#146,.T.);
#217=EDGE_CURVE('',#173,#174,#91,.T.);
#218=EDGE_CURVE('',#173,#175,#92,.T.);
#219=EDGE_CURVE('',#176,#174,#93,.T.);
#220=EDGE_CURVE('',#175,#176,#94,.T.);
#221=EDGE_CURVE('',#177,#175,#147,.T.);
#222=EDGE_CURVE('',#178,#176,#148,.T.);
#223=EDGE_CURVE('',#177,#178,#95,.T.);
#224=EDGE_CURVE('',#177,#179,#96,.T.);
#225=EDGE_CURVE('',#180,#178,#97,.T.);
#226=EDGE_CURVE('',#179,#180,#98,.T.);
#227=EDGE_CURVE('',#153,#179,#99,.T.);
#228=EDGE_CURVE('',#155,#180,#100,.T.);
#229=ORIENTED_EDGE('',*,*,#181,.F.);
#230=ORIENTED_EDGE('',*,*,#182,.T.);
#231=ORIENTED_EDGE('',*,*,#183,.F.);
#232=ORIENTED_EDGE('',*,*,#182,.F.);
#233=ORIENTED_EDGE('',*,*,#184,.F.);
#234=ORIENTED_EDGE('',*,*,#185,.T.);
#235=ORIENTED_EDGE('',*,*,#186,.F.);
#236=ORIENTED_EDGE('',*,*,#185,.F.);
#237=ORIENTED_EDGE('',*,*,#187,.F.);
#238=ORIENTED_EDGE('',*,*,#188,.T.);
#239=ORIENTED_EDGE('',*,*,#189,.F.);
#240=ORIENTED_EDGE('',*,*,#190,.F.);
#241=ORIENTED_EDGE('',*,*,#191,.F.);
#242=ORIENTED_EDGE('',*,*,#190,.T.);
#243=ORIENTED_EDGE('',*,*,#192,.F.);
#244=ORIENTED_EDGE('',*,*,#193,.F.);
#245=ORIENTED_EDGE('',*,*,#194,.F.);
#246=ORIENTED_EDGE('',*,*,#193,.T.);
#247=ORIENTED_EDGE('',*,*,#195,.F.);
#248=ORIENTED_EDGE('',*,*,#196,.F.);
#249=ORIENTED_EDGE('',*,*,#197,.T.);
#250=ORIENTED_EDGE('',*,*,#196,.T.);
#251=ORIENTED_EDGE('',*,*,#198,.F.);
#252=ORIENTED_EDGE('',*,*,#199,.F.);
#253=ORIENTED_EDGE('',*,*,#200,.F.);
#254=ORIENTED_EDGE('',*,*,#199,.T.);
#255=ORIENTED_EDGE('',*,*,#201,.F.);
#256=ORIENTED_EDGE('',*,*,#202,.F.);
#257=ORIENTED_EDGE('',*,*,#203,.T.);
#258=ORIENTED_EDGE('',*,*,#202,.T.);
#259=ORIENTED_EDGE('',*,*,#204,.F.);
#260=ORIENTED_EDGE('',*,*,#205,.F.);
#261=ORIENTED_EDGE('',*,*,#206,.F.);
#262=ORIENTED_EDGE('',*,*,#205,.T.);
#263=ORIENTED_EDGE('',*,*,#207,.F.);
#264=ORIENTED_EDGE('',*,*,#208,.F.);
#265=ORIENTED_EDGE('',*,*,#209,.T.);
#266=ORIENTED_EDGE('',*,*,#208,.T.);
#267=ORIENTED_EDGE('',*,*,#210,.F.);
#268=ORIENTED_EDGE('',*,*,#211,.F.);
#269=ORIENTED_EDGE('',*,*,#212,.F.);
#270=ORIENTED_EDGE('',*,*,#211,.T.);
#271=ORIENTED_EDGE('',*,*,#213,.F.);
#272=ORIENTED_EDGE('',*,*,#214,.F.);
#273=ORIENTED_EDGE('',*,*,#215,.T.);
#274=ORIENTED_EDGE('',*,*,#214,.T.);
#275=ORIENTED_EDGE('',*,*,#216,.F.);
#276=ORIENTED_EDGE('',*,*,#217,.F.);
#277=ORIENTED_EDGE('',*,*,#218,.F.);
#278=ORIENTED_EDGE('',*,*,#217,.T.);
#279=ORIENTED_EDGE('',*,*,#219,.F.);
#280=ORIENTED_EDGE('',*,*,#220,.F.);
#281=ORIENTED_EDGE('',*,*,#221,.T.);
#282=ORIENTED_EDGE('',*,*,#220,.T.);
#283=ORIENTED_EDGE('',*,*,#222,.F.);
#284=ORIENTED_EDGE('',*,*,#223,.F.);
#285=ORIENTED_EDGE('',*,*,#224,.F.);
#286=ORIENTED_EDGE('',*,*,#223,.T.);
#287=ORIENTED_EDGE('',*,*,#225,.F.);
#288=ORIENTED_EDGE('',*,*,#226,.F.);
#289=ORIENTED_EDGE('',*,*,#227,.T.);
#290=ORIENTED_EDGE('',*,*,#226,.T.);
#291=ORIENTED_EDGE('',*,*,#228,.F.);
#292=ORIENTED_EDGE('',*,*,#188,.F.);
#293=ORIENTED_EDGE('',*,*,#228,.T.);
#294=ORIENTED_EDGE('',*,*,#225,.T.);
#295=ORIENTED_EDGE('',*,*,#222,.T.);
#296=ORIENTED_EDGE('',*,*,#219,.T.);
#297=ORIENTED_EDGE('',*,*,#216,.T.);
#298=ORIENTED_EDGE('',*,*,#213,.T.);
#299=ORIENTED_EDGE('',*,*,#210,.T.);
#300=ORIENTED_EDGE('',*,*,#207,.T.);
#301=ORIENTED_EDGE('',*,*,#204,.T.);
#302=ORIENTED_EDGE('',*,*,#201,.T.);
#303=ORIENTED_EDGE('',*,*,#198,.T.);
#304=ORIENTED_EDGE('',*,*,#195,.T.);
#305=ORIENTED_EDGE('',*,*,#192,.T.);
#306=ORIENTED_EDGE('',*,*,#189,.T.);
#307=ORIENTED_EDGE('',*,*,#181,.T.);
#308=ORIENTED_EDGE('',*,*,#184,.T.);
#309=ORIENTED_EDGE('',*,*,#227,.F.);
#310=ORIENTED_EDGE('',*,*,#187,.T.);
#311=ORIENTED_EDGE('',*,*,#191,.T.);
#312=ORIENTED_EDGE('',*,*,#194,.T.);
#313=ORIENTED_EDGE('',*,*,#197,.F.);
#314=ORIENTED_EDGE('',*,*,#200,.T.);
#315=ORIENTED_EDGE('',*,*,#203,.F.);
#316=ORIENTED_EDGE('',*,*,#206,.T.);
#317=ORIENTED_EDGE('',*,*,#209,.F.);
#318=ORIENTED_EDGE('',*,*,#212,.T.);
#319=ORIENTED_EDGE('',*,*,#215,.F.);
#320=ORIENTED_EDGE('',*,*,#218,.T.);
#321=ORIENTED_EDGE('',*,*,#221,.F.);
#322=ORIENTED_EDGE('',*,*,#224,.T.);
#323=ORIENTED_EDGE('',*,*,#183,.T.);
#324=ORIENTED_EDGE('',*,*,#186,.T.);
#325=CYLINDRICAL_SURFACE('',#365,1.5);
#326=CYLINDRICAL_SURFACE('',#368,1.5);
#327=CYLINDRICAL_SURFACE('',#371,7.00000000000001);
#328=CYLINDRICAL_SURFACE('',#375,6.99999999999999);
#329=CYLINDRICAL_SURFACE('',#380,5.99999999999999);
#330=CYLINDRICAL_SURFACE('',#384,6.00000000000003);
#331=CYLINDRICAL_SURFACE('',#388,6.00000000000001);
#332=CYLINDRICAL_SURFACE('',#392,6.);
#333=ADVANCED_FACE('',(#29),#325,.F.);
#334=ADVANCED_FACE('',(#30),#326,.F.);
#335=ADVANCED_FACE('',(#31),#327,.F.);
#336=ADVANCED_FACE('',(#32),#19,.T.);
#337=ADVANCED_FACE('',(#33),#328,.F.);
#338=ADVANCED_FACE('',(#34),#20,.T.);
#339=ADVANCED_FACE('',(#35),#21,.T.);
#340=ADVANCED_FACE('',(#36),#329,.T.);
#341=ADVANCED_FACE('',(#37),#22,.T.);
#342=ADVANCED_FACE('',(#38),#330,.T.);
#343=ADVANCED_FACE('',(#39),#23,.T.);
#344=ADVANCED_FACE('',(#40),#331,.T.);
#345=ADVANCED_FACE('',(#41),#24,.T.);
#346=ADVANCED_FACE('',(#42),#332,.T.);
#347=ADVANCED_FACE('',(#43),#25,.T.);
#348=ADVANCED_FACE('',(#44),#26,.T.);
#349=ADVANCED_FACE('',(#45,#15,#16),#27,.T.);
#350=ADVANCED_FACE('',(#46,#17,#18),#28,.F.);
#351=CLOSED_SHELL('',(#333,#334,#335,#336,#337,#338,#339,#340,#341,#342,
#343,#344,#345,#346,#347,#348,#349,#350));
#352=DERIVED_UNIT_ELEMENT(#354,1.);
#353=DERIVED_UNIT_ELEMENT(#605,-3.);
#354=(
MASS_UNIT()
NAMED_UNIT(*)
SI_UNIT(.KILO.,.GRAM.)
);
#355=DERIVED_UNIT((#352,#353));
#356=MEASURE_REPRESENTATION_ITEM('density measure',
POSITIVE_RATIO_MEASURE(7850.),#355);
#357=PROPERTY_DEFINITION_REPRESENTATION(#362,#359);
#358=PROPERTY_DEFINITION_REPRESENTATION(#363,#360);
#359=REPRESENTATION('material name',(#361),#602);
#360=REPRESENTATION('density',(#356),#602);
#361=DESCRIPTIVE_REPRESENTATION_ITEM('Stahl','Stahl');
#362=PROPERTY_DEFINITION('material property','material name',#612);
#363=PROPERTY_DEFINITION('material property','density of part',#612);
#364=AXIS2_PLACEMENT_3D('',#501,#399,#400);
#365=AXIS2_PLACEMENT_3D('',#502,#401,#402);
#366=AXIS2_PLACEMENT_3D('',#504,#403,#404);
#367=AXIS2_PLACEMENT_3D('',#507,#406,#407);
#368=AXIS2_PLACEMENT_3D('',#508,#408,#409);
#369=AXIS2_PLACEMENT_3D('',#510,#410,#411);
#370=AXIS2_PLACEMENT_3D('',#513,#413,#414);
#371=AXIS2_PLACEMENT_3D('',#514,#415,#416);
#372=AXIS2_PLACEMENT_3D('',#517,#417,#418);
#373=AXIS2_PLACEMENT_3D('',#521,#420,#421);
#374=AXIS2_PLACEMENT_3D('',#523,#423,#424);
#375=AXIS2_PLACEMENT_3D('',#529,#428,#429);
#376=AXIS2_PLACEMENT_3D('',#531,#430,#431);
#377=AXIS2_PLACEMENT_3D('',#533,#432,#433);
#378=AXIS2_PLACEMENT_3D('',#535,#435,#436);
#379=AXIS2_PLACEMENT_3D('',#541,#440,#441);
#380=AXIS2_PLACEMENT_3D('',#547,#445,#446);
#381=AXIS2_PLACEMENT_3D('',#549,#447,#448);
#382=AXIS2_PLACEMENT_3D('',#551,#449,#450);
#383=AXIS2_PLACEMENT_3D('',#553,#452,#453);
#384=AXIS2_PLACEMENT_3D('',#559,#457,#458);
#385=AXIS2_PLACEMENT_3D('',#561,#459,#460);
#386=AXIS2_PLACEMENT_3D('',#563,#461,#462);
#387=AXIS2_PLACEMENT_3D('',#565,#464,#465);
#388=AXIS2_PLACEMENT_3D('',#571,#469,#470);
#389=AXIS2_PLACEMENT_3D('',#573,#471,#472);
#390=AXIS2_PLACEMENT_3D('',#575,#473,#474);
#391=AXIS2_PLACEMENT_3D('',#577,#476,#477);
#392=AXIS2_PLACEMENT_3D('',#583,#481,#482);
#393=AXIS2_PLACEMENT_3D('',#585,#483,#484);
#394=AXIS2_PLACEMENT_3D('',#587,#485,#486);
#395=AXIS2_PLACEMENT_3D('',#589,#488,#489);
#396=AXIS2_PLACEMENT_3D('',#595,#493,#494);
#397=AXIS2_PLACEMENT_3D('',#598,#497,#498);
#398=AXIS2_PLACEMENT_3D('',#599,#499,#500);
#399=DIRECTION('axis',(0.,0.,1.));
#400=DIRECTION('refdir',(1.,0.,0.));
#401=DIRECTION('center_axis',(0.707106781186548,0.,0.707106781186547));
#402=DIRECTION('ref_axis',(0.,-1.,0.));
#403=DIRECTION('center_axis',(0.707106781186547,2.44249065417534E-16,0.707106781186548));
#404=DIRECTION('ref_axis',(0.,-1.,0.));
#405=DIRECTION('',(0.707106781186548,0.,0.707106781186547));
#406=DIRECTION('center_axis',(-0.707106781186547,-2.44249065417534E-16,
-0.707106781186548));
#407=DIRECTION('ref_axis',(0.,-1.,0.));
#408=DIRECTION('center_axis',(0.707106781186548,0.,0.707106781186547));
#409=DIRECTION('ref_axis',(0.,-1.,0.));
#410=DIRECTION('center_axis',(0.707106781186547,2.44249065417534E-16,0.707106781186548));
#411=DIRECTION('ref_axis',(0.,-1.,0.));
#412=DIRECTION('',(0.707106781186548,0.,0.707106781186547));
#413=DIRECTION('center_axis',(-0.707106781186547,-2.44249065417534E-16,
-0.707106781186548));
#414=DIRECTION('ref_axis',(0.,-1.,0.));
#415=DIRECTION('center_axis',(-0.707106781186547,0.,-0.707106781186548));
#416=DIRECTION('ref_axis',(-4.48597845338221E-16,-1.,4.4859784533822E-16));
#417=DIRECTION('center_axis',(-0.707106781186547,-9.24074496478561E-16,
-0.707106781186548));
#418=DIRECTION('ref_axis',(2.04821497443314E-16,-1.,1.10201718811976E-15));
#419=DIRECTION('',(-0.707106781186547,0.,-0.707106781186548));
#420=DIRECTION('center_axis',(0.707106781186547,9.24074496478561E-16,0.707106781186548));
#421=DIRECTION('ref_axis',(2.04821497443314E-16,-1.,1.10201718811976E-15));
#422=DIRECTION('',(-0.707106781186547,0.,-0.707106781186548));
#423=DIRECTION('center_axis',(0.707106781186548,-2.82975097624816E-8,-0.707106781186546));
#424=DIRECTION('ref_axis',(-2.0009361101388E-8,-1.,2.00093609860985E-8));
#425=DIRECTION('',(2.0009361101388E-8,1.,-2.00093609860985E-8));
#426=DIRECTION('',(-2.0009361101388E-8,-1.,2.00093609860985E-8));
#427=DIRECTION('',(-0.707106781186547,0.,-0.707106781186548));
#428=DIRECTION('center_axis',(-0.707106781186547,0.,-0.707106781186548));
#429=DIRECTION('ref_axis',(-0.707106781186548,-6.34413156928661E-16,0.707106781186547));
#430=DIRECTION('center_axis',(-0.707106781186547,0.,-0.707106781186548));
#431=DIRECTION('ref_axis',(-0.707106781186548,-6.34413156928661E-16,0.707106781186547));
#432=DIRECTION('center_axis',(0.707106781186547,0.,0.707106781186548));
#433=DIRECTION('ref_axis',(-0.707106781186548,-6.34413156928661E-16,0.707106781186547));
#434=DIRECTION('',(-0.707106781186547,0.,-0.707106781186548));
#435=DIRECTION('center_axis',(1.77330042776006E-15,-1.,-1.77330042776005E-15));
#436=DIRECTION('ref_axis',(-0.707106781186548,-2.50782551510028E-15,0.707106781186547));
#437=DIRECTION('',(-0.707106781186548,-2.50782551510028E-15,0.707106781186547));
#438=DIRECTION('',(-0.707106781186548,-2.50782551510028E-15,0.707106781186547));
#439=DIRECTION('',(-0.707106781186547,0.,-0.707106781186548));
#440=DIRECTION('center_axis',(0.707106781186548,8.88178419700125E-17,-0.707106781186547));
#441=DIRECTION('ref_axis',(6.48971549589294E-17,-1.,-6.07102417357726E-17));
#442=DIRECTION('',(-6.48971549589294E-17,1.,6.07102417357726E-17));
#443=DIRECTION('',(6.48971549589294E-17,-1.,-6.07102417357726E-17));
#444=DIRECTION('',(-0.707106781186547,0.,-0.707106781186548));
#445=DIRECTION('center_axis',(-0.707106781186547,0.,-0.707106781186548));
#446=DIRECTION('ref_axis',(-7.8504622934189E-16,1.,7.85046229341888E-16));
#447=DIRECTION('center_axis',(-0.707106781186547,1.23358113847238E-17,-0.707106781186548));
#448=DIRECTION('ref_axis',(-7.76323493460313E-16,1.,7.93768965223465E-16));
#449=DIRECTION('center_axis',(-0.707106781186547,1.23358113847238E-17,-0.707106781186548));
#450=DIRECTION('ref_axis',(-7.76323493460313E-16,1.,7.93768965223466E-16));
#451=DIRECTION('',(-0.707106781186547,0.,-0.707106781186548));
#452=DIRECTION('center_axis',(1.88411095042053E-16,1.,-1.88411095042053E-16));
#453=DIRECTION('ref_axis',(0.707106781186548,-2.66453525910037E-16,-0.707106781186547));
#454=DIRECTION('',(-0.707106781186548,2.66453525910037E-16,0.707106781186547));
#455=DIRECTION('',(0.707106781186548,-2.66453525910037E-16,-0.707106781186547));
#456=DIRECTION('',(-0.707106781186547,0.,-0.707106781186548));
#457=DIRECTION('center_axis',(-0.707106781186547,0.,-0.707106781186548));
#458=DIRECTION('ref_axis',(-0.707106781186548,1.48029736616687E-15,0.707106781186547));
#459=DIRECTION('center_axis',(-0.707106781186547,-6.57384087684167E-31,
-0.707106781186548));
#460=DIRECTION('ref_axis',(-0.707106781186548,1.48029736616687E-15,0.707106781186547));
#461=DIRECTION('center_axis',(-0.707106781186547,-6.57384087684167E-31,
-0.707106781186548));
#462=DIRECTION('ref_axis',(-0.707106781186548,1.48029736616687E-15,0.707106781186547));
#463=DIRECTION('',(-0.707106781186547,0.,-0.707106781186548));
#464=DIRECTION('center_axis',(-0.707106781186548,-1.77635683940025E-16,
0.707106781186547));
#465=DIRECTION('ref_axis',(-1.60149430785745E-16,1.,9.10653626036589E-17));
#466=DIRECTION('',(1.60149430785745E-16,-1.,-9.10653626036589E-17));
#467=DIRECTION('',(-1.60149430785745E-16,1.,9.10653626036589E-17));
#468=DIRECTION('',(-0.707106781186547,0.,-0.707106781186548));
#469=DIRECTION('center_axis',(-0.707106781186547,0.,-0.707106781186548));
#470=DIRECTION('ref_axis',(-2.09345661157837E-15,-1.,2.09345661157836E-15));
#471=DIRECTION('center_axis',(-0.707106781186547,-2.44249065417534E-16,
-0.707106781186548));
#472=DIRECTION('ref_axis',(-1.92074644112315E-15,-1.,2.26616678203358E-15));
#473=DIRECTION('center_axis',(-0.707106781186547,-2.44249065417534E-16,
-0.707106781186548));
#474=DIRECTION('ref_axis',(-1.92074644112315E-15,-1.,2.26616678203358E-15));
#475=DIRECTION('',(-0.707106781186547,0.,-0.707106781186548));
#476=DIRECTION('center_axis',(6.28036983473511E-17,-1.,-6.28036983473509E-17));
#477=DIRECTION('ref_axis',(-0.707106781186548,-8.88178419700125E-17,0.707106781186547));
#478=DIRECTION('',(0.707106781186548,8.88178419700125E-17,-0.707106781186547));
#479=DIRECTION('',(-0.707106781186548,-8.88178419700125E-17,0.707106781186547));
#480=DIRECTION('',(-0.707106781186547,0.,-0.707106781186548));
#481=DIRECTION('center_axis',(-0.707106781186547,0.,-0.707106781186548));
#482=DIRECTION('ref_axis',(0.707106781186548,0.,-0.707106781186547));
#483=DIRECTION('center_axis',(-0.707106781186547,0.,-0.707106781186548));
#484=DIRECTION('ref_axis',(0.707106781186548,0.,-0.707106781186547));
#485=DIRECTION('center_axis',(-0.707106781186547,0.,-0.707106781186548));
#486=DIRECTION('ref_axis',(0.707106781186548,0.,-0.707106781186547));
#487=DIRECTION('',(-0.707106781186547,0.,-0.707106781186548));
#488=DIRECTION('center_axis',(0.707106781186548,8.88178419700125E-17,-0.707106781186547));
#489=DIRECTION('ref_axis',(6.48971549589294E-17,-1.,-6.07102417357726E-17));
#490=DIRECTION('',(-6.48971549589294E-17,1.,6.07102417357726E-17));
#491=DIRECTION('',(6.48971549589294E-17,-1.,-6.07102417357726E-17));
#492=DIRECTION('',(-0.707106781186547,0.,-0.707106781186548));
#493=DIRECTION('center_axis',(8.86649732064824E-16,1.,-8.86649732064821E-16));
#494=DIRECTION('ref_axis',(0.707106781186548,-1.25391207616054E-15,-0.707106781186547));
#495=DIRECTION('',(0.707106781186548,-1.25391207616054E-15,-0.707106781186547));
#496=DIRECTION('',(0.707106781186548,-1.25391207616054E-15,-0.707106781186547));
#497=DIRECTION('center_axis',(-0.707106781186547,-2.44249065417534E-16,
-0.707106781186548));
#498=DIRECTION('ref_axis',(1.72710170455215E-16,-1.,1.72710170455215E-16));
#499=DIRECTION('center_axis',(-0.707106781186547,-2.44249065417534E-16,
-0.707106781186548));
#500=DIRECTION('ref_axis',(1.72710170455215E-16,-1.,1.72710170455215E-16));
#501=CARTESIAN_POINT('',(0.,0.,0.));
#502=CARTESIAN_POINT('Origin',(-47.6045447452468,57.0000009685755,79.6746779756742));
#503=CARTESIAN_POINT('',(-47.6045447452468,58.5000009685755,79.6746779756742));
#504=CARTESIAN_POINT('Origin',(-47.6045447452468,57.0000009685755,79.6746779756742));
#505=CARTESIAN_POINT('',(-46.5438845734669,58.5000009685755,80.735338147454));
#506=CARTESIAN_POINT('',(-47.6045447452468,58.5000009685755,79.6746779756742));
#507=CARTESIAN_POINT('Origin',(-46.5438845734669,57.0000009685755,80.735338147454));
#508=CARTESIAN_POINT('Origin',(-47.6045436915756,-47.,79.6746769220029));
#509=CARTESIAN_POINT('',(-47.6045436915756,-45.5,79.6746769220029));
#510=CARTESIAN_POINT('Origin',(-47.6045436915755,-47.,79.674676922003));
#511=CARTESIAN_POINT('',(-46.5438835197957,-45.5,80.7353370937828));
#512=CARTESIAN_POINT('',(-47.6045436915756,-45.5,79.6746769220029));
#513=CARTESIAN_POINT('Origin',(-46.5438835197957,-47.,80.7353370937828));
#514=CARTESIAN_POINT('Origin',(28.4094340304764,-28.9953147098246,5.78201954351063));
#515=CARTESIAN_POINT('',(28.4094340304764,-35.9953147098246,5.78201954351064));
#516=CARTESIAN_POINT('',(23.4596865621708,-28.9953169551442,10.7317670118162));
#517=CARTESIAN_POINT('Origin',(28.4094340304764,-28.9953147098246,5.78201954351063));
#518=CARTESIAN_POINT('',(27.3487738586966,-35.9953147098246,4.72135937173082));
#519=CARTESIAN_POINT('',(28.4094340304764,-35.9953147098246,5.78201954351064));
#520=CARTESIAN_POINT('',(22.399026390391,-28.9953169551442,9.67110684003639));
#521=CARTESIAN_POINT('Origin',(27.3487738586966,-28.9953147098246,4.72135937173081));
#522=CARTESIAN_POINT('',(23.4596865621708,-28.9953169551442,10.7317670118162));
#523=CARTESIAN_POINT('Origin',(23.4596879230396,39.0162863618868,10.7317656509475));
#524=CARTESIAN_POINT('',(23.4596879230396,39.0162863618868,10.7317656509475));
#525=CARTESIAN_POINT('',(23.4596865621708,-28.9953169551442,10.7317670118162));
#526=CARTESIAN_POINT('',(22.3990277512598,39.0162863618868,9.67110547916767));
#527=CARTESIAN_POINT('',(22.399026390391,-28.9953169551442,9.67110684003639));
#528=CARTESIAN_POINT('',(23.4596879230396,39.0162863618868,10.7317656509475));
#529=CARTESIAN_POINT('Origin',(28.4094353913454,39.0162863618868,5.78201818264166));
#530=CARTESIAN_POINT('',(28.4094353913454,46.0162863618868,5.78201818264166));
#531=CARTESIAN_POINT('Origin',(28.4094353913454,39.0162863618868,5.78201818264166));
#532=CARTESIAN_POINT('',(27.3487752195656,46.0162863618868,4.72135801086184));
#533=CARTESIAN_POINT('Origin',(27.3487752195656,39.0162863618868,4.72135801086184));
#534=CARTESIAN_POINT('',(28.4094353913454,46.0162863618868,5.78201818264166));
#535=CARTESIAN_POINT('Origin',(29.4995307599244,46.0162863618868,4.69192281406269));
#536=CARTESIAN_POINT('',(29.4995307599244,46.0162863618868,4.69192281406269));
#537=CARTESIAN_POINT('',(30.9137443222975,46.0162863618868,3.27770925168959));
#538=CARTESIAN_POINT('',(28.4388705881446,46.0162863618868,3.63126264228287));
#539=CARTESIAN_POINT('',(29.8530841505177,46.0162863618868,2.21704907990977));
#540=CARTESIAN_POINT('',(29.4995307599244,46.0162863618868,4.69192281406269));
#541=CARTESIAN_POINT('Origin',(29.4995307599244,55.0439069721196,4.69192281406269));
#542=CARTESIAN_POINT('',(29.4995307599244,55.0439069721196,4.69192281406269));
#543=CARTESIAN_POINT('',(29.4995307599244,-44.9560930278804,4.69192281406268));
#544=CARTESIAN_POINT('',(28.4388705881446,55.0439069721196,3.63126264228287));
#545=CARTESIAN_POINT('',(28.4388705881446,-44.9560930278804,3.63126264228286));
#546=CARTESIAN_POINT('',(29.4995307599244,55.0439069721196,4.69192281406269));
#547=CARTESIAN_POINT('Origin',(25.2568900728051,55.0439069721196,8.93456350118197));
#548=CARTESIAN_POINT('',(25.2568900728051,61.0439069721196,8.93456350118197));
#549=CARTESIAN_POINT('Origin',(25.2568900728051,55.0439069721196,8.93456350118197));
#550=CARTESIAN_POINT('',(24.1962299010253,61.0439069721196,7.87390332940215));
#551=CARTESIAN_POINT('Origin',(24.1962299010253,55.0439069721196,7.87390332940214));
#552=CARTESIAN_POINT('',(25.2568900728051,61.0439069721196,8.93456350118197));
#553=CARTESIAN_POINT('Origin',(-45.4537880458497,61.0439069721197,79.6452416198368));
#554=CARTESIAN_POINT('',(-45.4537880458497,61.0439069721197,79.6452416198368));
#555=CARTESIAN_POINT('',(25.2568900728051,61.0439069721196,8.93456350118197));
#556=CARTESIAN_POINT('',(-46.5144482176296,61.0439069721197,78.584581448057));
#557=CARTESIAN_POINT('',(24.1962299010253,61.0439069721196,7.87390332940215));
#558=CARTESIAN_POINT('',(-45.4537880458497,61.0439069721197,79.6452416198368));
#559=CARTESIAN_POINT('Origin',(-45.4537880458497,55.0439069721196,79.6452416198367));
#560=CARTESIAN_POINT('',(-49.696428732969,55.0439069721196,83.887882306956));
#561=CARTESIAN_POINT('Origin',(-45.4537880458497,55.0439069721196,79.6452416198367));
#562=CARTESIAN_POINT('',(-50.7570889047488,55.0439069721197,82.8272221351762));
#563=CARTESIAN_POINT('Origin',(-46.5144482176295,55.0439069721196,78.5845814480569));
#564=CARTESIAN_POINT('',(-49.696428732969,55.0439069721196,83.887882306956));
#565=CARTESIAN_POINT('Origin',(-49.696428732969,-44.9560930278804,83.887882306956));
#566=CARTESIAN_POINT('',(-49.696428732969,-44.9560930278804,83.887882306956));
#567=CARTESIAN_POINT('',(-49.696428732969,55.0439069721196,83.887882306956));
#568=CARTESIAN_POINT('',(-50.7570889047488,-44.9560930278804,82.8272221351762));
#569=CARTESIAN_POINT('',(-50.7570889047489,55.0439069721196,82.8272221351762));
#570=CARTESIAN_POINT('',(-49.696428732969,-44.9560930278804,83.887882306956));
#571=CARTESIAN_POINT('Origin',(-45.4537880458497,-44.9560930278804,79.6452416198367));
#572=CARTESIAN_POINT('',(-45.4537880458497,-50.9560930278804,79.6452416198367));
#573=CARTESIAN_POINT('Origin',(-45.4537880458497,-44.9560930278804,79.6452416198367));
#574=CARTESIAN_POINT('',(-46.5144482176295,-50.9560930278804,78.5845814480569));
#575=CARTESIAN_POINT('Origin',(-46.5144482176295,-44.9560930278804,78.5845814480569));
#576=CARTESIAN_POINT('',(-45.4537880458497,-50.9560930278804,79.6452416198367));
#577=CARTESIAN_POINT('Origin',(25.2568900728051,-50.9560930278804,8.93456350118197));
#578=CARTESIAN_POINT('',(25.2568900728051,-50.9560930278804,8.93456350118197));
#579=CARTESIAN_POINT('',(-45.4537880458497,-50.9560930278804,79.6452416198367));
#580=CARTESIAN_POINT('',(24.1962299010253,-50.9560930278804,7.87390332940215));
#581=CARTESIAN_POINT('',(-46.5144482176295,-50.9560930278804,78.5845814480569));
#582=CARTESIAN_POINT('',(25.2568900728051,-50.9560930278804,8.93456350118197));
#583=CARTESIAN_POINT('Origin',(25.2568900728051,-44.9560930278804,8.93456350118197));
#584=CARTESIAN_POINT('',(29.4995307599244,-44.9560930278804,4.69192281406268));
#585=CARTESIAN_POINT('Origin',(25.2568900728051,-44.9560930278804,8.93456350118197));
#586=CARTESIAN_POINT('',(28.4388705881446,-44.9560930278804,3.63126264228286));
#587=CARTESIAN_POINT('Origin',(24.1962299010253,-44.9560930278804,7.87390332940214));
#588=CARTESIAN_POINT('',(29.4995307599244,-44.9560930278804,4.69192281406268));
#589=CARTESIAN_POINT('Origin',(29.4995307599244,-35.9953147098246,4.69192281406268));
#590=CARTESIAN_POINT('',(29.4995307599244,-35.9953147098246,4.69192281406268));
#591=CARTESIAN_POINT('',(29.4995307599244,-44.9560930278804,4.69192281406268));
#592=CARTESIAN_POINT('',(28.4388705881446,-35.9953147098246,3.63126264228286));
#593=CARTESIAN_POINT('',(28.4388705881446,-44.9560930278804,3.63126264228286));
#594=CARTESIAN_POINT('',(29.4995307599244,-35.9953147098246,4.69192281406268));
#595=CARTESIAN_POINT('Origin',(28.4094340304764,-35.9953147098246,5.78201954351064));
#596=CARTESIAN_POINT('',(28.4094340304764,-35.9953147098246,5.78201954351064));
#597=CARTESIAN_POINT('',(27.3487738586966,-35.9953147098246,4.72135937173082));
#598=CARTESIAN_POINT('Origin',(-11.1591091583021,5.04390697211965,43.2292423887295));
#599=CARTESIAN_POINT('Origin',(-10.0984489865223,5.04390697211965,44.2899025605093));
#600=UNCERTAINTY_MEASURE_WITH_UNIT(LENGTH_MEASURE(0.01),#604,
'DISTANCE_ACCURACY_VALUE',
'Maximum model space distance between geometric entities at asserted c
onnectivities');
#601=UNCERTAINTY_MEASURE_WITH_UNIT(LENGTH_MEASURE(0.01),#604,
'DISTANCE_ACCURACY_VALUE',
'Maximum model space distance between geometric entities at asserted c
onnectivities');
#602=(
GEOMETRIC_REPRESENTATION_CONTEXT(3)
GLOBAL_UNCERTAINTY_ASSIGNED_CONTEXT((#600))
GLOBAL_UNIT_ASSIGNED_CONTEXT((#604,#606,#607))
REPRESENTATION_CONTEXT('','3D')
);
#603=(
GEOMETRIC_REPRESENTATION_CONTEXT(3)
GLOBAL_UNCERTAINTY_ASSIGNED_CONTEXT((#601))
GLOBAL_UNIT_ASSIGNED_CONTEXT((#604,#606,#607))
REPRESENTATION_CONTEXT('','3D')
);
#604=(
LENGTH_UNIT()
NAMED_UNIT(*)
SI_UNIT(.MILLI.,.METRE.)
);
#605=(
LENGTH_UNIT()
NAMED_UNIT(*)
SI_UNIT($,.METRE.)
);
#606=(
NAMED_UNIT(*)
PLANE_ANGLE_UNIT()
SI_UNIT($,.RADIAN.)
);
#607=(
NAMED_UNIT(*)
SI_UNIT($,.STERADIAN.)
SOLID_ANGLE_UNIT()
);
#608=SHAPE_DEFINITION_REPRESENTATION(#609,#610);
#609=PRODUCT_DEFINITION_SHAPE('',$,#612);
#610=SHAPE_REPRESENTATION('',(#364),#602);
#611=PRODUCT_DEFINITION_CONTEXT('part definition',#616,'design');
#612=PRODUCT_DEFINITION('Dreamdeck','Dreamdeck v2',#613,#611);
#613=PRODUCT_DEFINITION_FORMATION('',$,#618);
#614=PRODUCT_RELATED_PRODUCT_CATEGORY('Dreamdeck v2','Dreamdeck v2',(#618));
#615=APPLICATION_PROTOCOL_DEFINITION('international standard',
'automotive_design',2009,#616);
#616=APPLICATION_CONTEXT(
'Core Data for Automotive Mechanical Design Process');
#617=PRODUCT_CONTEXT('part definition',#616,'mechanical');
#618=PRODUCT('Dreamdeck','Dreamdeck v2',$,(#617));
#619=PRESENTATION_STYLE_ASSIGNMENT((#620));
#620=SURFACE_STYLE_USAGE(.BOTH.,#621);
#621=SURFACE_SIDE_STYLE('',(#622));
#622=SURFACE_STYLE_FILL_AREA(#623);
#623=FILL_AREA_STYLE('Stahl - satiniert',(#624));
#624=FILL_AREA_STYLE_COLOUR('Stahl - satiniert',#625);
#625=COLOUR_RGB('Stahl - satiniert',0.627450980392157,0.627450980392157,
0.627450980392157);
ENDSEC;
END-ISO-10303-21;
